# xmcd
#
# Track frame offsets:
#	150
#	13621
#	24861
#	36161
#	47804
#	61792
#	72005
#	84416
#	96890
#	110204
#	121937
#	133717
#	145736
#	156928
#	168888
#	181401
#	193651
#	206174
#	217954
#	230436
#	240949
#
# Disc length: 3379 seconds
#
# Revision: 0
# Processed by: cddbd v1.5PL3 Copyright (c) Steve Scherf et al.
# Submitted via: dBpowerAMP V4.0
#
DISCID=1a0d3115
DTITLE=Hank Williams - His All-Time Greatest Hits, Disk 2
DYEAR=2000
DGENRE=Country
TTITLE0=Hey Good Lookin'
TTITLE1=Crazy Heart
TTITLE2=(I Heard That) Lonesome Whistle
TTITLE3=Baby Were Really In Love
TTITLE4=Ramblin' Man
TTITLE5=Honky Tonk Blues
TTITLE6=I'm Sorry For You My Friend
TTITLE7=Half As Much
TTITLE8=Jambalaya
TTITLE9=Window Shopping
TTITLE10=Setting The Woods On Fire
TTITLE11=You Win Again
TTITLE12=I'll Never Get Out Of This World Alive
TTITLE13=Kaw-Liga
TTITLE14=Your Cheatin' Heart
TTITLE15=Take These Chains From My Heart
TTITLE16=I Won't Be Home No More
TTITLE17=Weary Blues From Waitin'
TTITLE18=I Saw The Light
TTITLE19=Tennessee Waltz
TTITLE20=Honky Tonkin'
EXTD=
EXTT0=
EXTT1=
EXTT2=
EXTT3=
EXTT4=
EXTT5=
EXTT6=
EXTT7=
EXTT8=
EXTT9=
EXTT10=
EXTT11=
EXTT12=
EXTT13=
EXTT14=
EXTT15=
EXTT16=
EXTT17=
EXTT18=
EXTT19=
EXTT20=
PLAYORDER=
